<?xml version="1.0" encoding="UTF-8" standalone="no"?>
<!DOCTYPE svg PUBLIC "-//W3C//DTD SVG 1.1//EN"
 "http://www.w3.org/Graphics/SVG/1.1/DTD/svg11.dtd">
<!-- Generated by graphviz version 2.40.1 (20161225.0304)
 -->
<!-- Title: %3 Pages: 1 -->
<svg width="512pt" height="190pt"
 viewBox="0.00 0.00 512.00 190.49" xmlns="http://www.w3.org/2000/svg" xmlns:xlink="http://www.w3.org/1999/xlink">
<g id="graph0" class="graph" transform="scale(1 1) rotate(0) translate(4 186.4925)">
<title>%3</title>
<polygon fill="#ffffff" stroke="transparent" points="-4,4 -4,-186.4925 508,-186.4925 508,4 -4,4"/>
<!-- HH -->
<g id="node1" class="node">
<title>HH</title>
<ellipse fill="none" stroke="#9932cc" cx="207" cy="-146.4925" rx="27" ry="18"/>
<text text-anchor="middle" x="207" y="-142.7925" font-family="Times,serif" font-size="14.00" fill="#000000">HH</text>
</g>
<!-- HH&#45;&gt;HH -->
<g id="edge1" class="edge">
<title>HH&#45;&gt;HH</title>
<path fill="none" stroke="#228b22" d="M191.7729,-161.6591C187.1587,-172.1566 192.2344,-182.4925 207,-182.4925 216.9207,-182.4925 222.4671,-177.8267 223.6394,-171.5809"/>
<polygon fill="#228b22" stroke="#228b22" points="227.1015,-171.0661 222.2271,-161.6591 220.1713,-172.0526 227.1015,-171.0661"/>
</g>
<!-- HZ -->
<g id="node2" class="node">
<title>HZ</title>
<ellipse fill="none" stroke="#ff8c00" cx="297" cy="-107.4925" rx="27" ry="18"/>
<text text-anchor="middle" x="297" y="-103.7925" font-family="Times,serif" font-size="14.00" fill="#000000">HZ</text>
</g>
<!-- HH&#45;&gt;HZ -->
<g id="edge2" class="edge">
<title>HH&#45;&gt;HZ</title>
<path fill="none" stroke="#ff0000" d="M229.7108,-136.6512C240.3696,-132.0323 253.2605,-126.4463 264.8953,-121.4045"/>
<polygon fill="#ff0000" stroke="#ff0000" points="266.5125,-124.5183 274.2965,-117.3307 263.7293,-118.0954 266.5125,-124.5183"/>
</g>
<!-- ZH -->
<g id="node3" class="node">
<title>ZH</title>
<ellipse fill="none" stroke="#000000" cx="477" cy="-107.4925" rx="27" ry="18"/>
<text text-anchor="middle" x="477" y="-103.7925" font-family="Times,serif" font-size="14.00" fill="#000000">ZH</text>
</g>
<!-- HZ&#45;&gt;ZH -->
<g id="edge3" class="edge">
<title>HZ&#45;&gt;ZH</title>
<path fill="none" stroke="#228b22" d="M323.1735,-102.5644C354.1009,-100.3636 405.7457,-100.1567 440.5692,-101.9436"/>
<polygon fill="#228b22" stroke="#228b22" points="440.6017,-105.4519 450.7949,-102.5622 441.0245,-98.4647 440.6017,-105.4519"/>
</g>
<!-- ZZ -->
<g id="node4" class="node">
<title>ZZ</title>
<ellipse fill="none" stroke="#000000" cx="387" cy="-34.4925" rx="27" ry="18"/>
<text text-anchor="middle" x="387" y="-30.7925" font-family="Times,serif" font-size="14.00" fill="#000000">ZZ</text>
</g>
<!-- HZ&#45;&gt;ZZ -->
<g id="edge4" class="edge">
<title>HZ&#45;&gt;ZZ</title>
<path fill="none" stroke="#ff0000" d="M314.3529,-93.4174C327.7997,-82.5105 346.6239,-67.242 361.741,-54.9803"/>
<polygon fill="#ff0000" stroke="#ff0000" points="364.1387,-57.5421 369.7004,-48.5244 359.7291,-52.1056 364.1387,-57.5421"/>
</g>
<!-- ZH&#45;&gt;HH -->
<g id="edge5" class="edge">
<title>ZH&#45;&gt;HH</title>
<path fill="none" stroke="#228b22" d="M454.4054,-117.4434C442.596,-122.2045 427.7686,-127.5061 414,-130.4925 355.6714,-143.1441 286.1951,-146.1231 244.3956,-146.6492"/>
<polygon fill="#228b22" stroke="#228b22" points="244.1047,-143.1515 234.1345,-146.7356 244.1637,-150.1512 244.1047,-143.1515"/>
</g>
<!-- ZH&#45;&gt;HZ -->
<g id="edge6" class="edge">
<title>ZH&#45;&gt;HZ</title>
<path fill="none" stroke="#ff0000" d="M450.7949,-112.4228C419.8534,-114.6223 368.2073,-114.8279 333.3953,-113.0396"/>
<polygon fill="#ff0000" stroke="#ff0000" points="333.3669,-109.5315 323.1735,-112.4206 332.9437,-116.5187 333.3669,-109.5315"/>
</g>
<!-- ZZ&#45;&gt;ZH -->
<g id="edge7" class="edge">
<title>ZZ&#45;&gt;ZH</title>
<path fill="none" stroke="#228b22" d="M404.3529,-48.5676C417.7997,-59.4745 436.6239,-74.743 451.741,-87.0047"/>
<polygon fill="#228b22" stroke="#228b22" points="449.7291,-89.8794 459.7004,-93.4606 454.1387,-84.4429 449.7291,-89.8794"/>
</g>
<!-- ZZ&#45;&gt;ZZ -->
<g id="edge8" class="edge">
<title>ZZ&#45;&gt;ZZ</title>
<path fill="none" stroke="#ff0000" d="M371.7729,-49.6591C367.1587,-60.1566 372.2344,-70.4925 387,-70.4925 396.9207,-70.4925 402.4671,-65.8267 403.6394,-59.5809"/>
<polygon fill="#ff0000" stroke="#ff0000" points="407.1015,-59.0661 402.2271,-49.6591 400.1713,-60.0526 407.1015,-59.0661"/>
</g>
<!-- _H -->
<g id="node5" class="node">
<title>_H</title>
<ellipse fill="none" stroke="#000000" cx="117" cy="-100.4925" rx="27" ry="18"/>
<text text-anchor="middle" x="117" y="-96.7925" font-family="Times,serif" font-size="14.00" fill="#000000">_H</text>
</g>
<!-- _H&#45;&gt;HH -->
<g id="edge9" class="edge">
<title>_H&#45;&gt;HH</title>
<path fill="none" stroke="#228b22" d="M138.7865,-111.6278C150.0625,-117.3911 164.0163,-124.5231 176.3599,-130.832"/>
<polygon fill="#228b22" stroke="#228b22" points="174.9169,-134.0251 185.4141,-135.4597 178.1027,-127.792 174.9169,-134.0251"/>
</g>
<!-- _H&#45;&gt;HZ -->
<g id="edge10" class="edge">
<title>_H&#45;&gt;HZ</title>
<path fill="none" stroke="#ff0000" d="M144.3381,-101.5557C175.1765,-102.7549 225.5008,-104.712 259.8771,-106.0488"/>
<polygon fill="#ff0000" stroke="#ff0000" points="259.8659,-109.551 269.9944,-106.4423 260.138,-102.5562 259.8659,-109.551"/>
</g>
<!-- _Z -->
<g id="node6" class="node">
<title>_Z</title>
<ellipse fill="none" stroke="#000000" cx="297" cy="-34.4925" rx="27" ry="18"/>
<text text-anchor="middle" x="297" y="-30.7925" font-family="Times,serif" font-size="14.00" fill="#000000">_Z</text>
</g>
<!-- _Z&#45;&gt;ZH -->
<g id="edge11" class="edge">
<title>_Z&#45;&gt;ZH</title>
<path fill="none" stroke="#228b22" d="M316.8083,-21.8425C341.0716,-8.1011 382.7904,9.7322 414,-7.4925 441.8229,-22.8481 459.0393,-56.2242 468.2994,-80.1965"/>
<polygon fill="#228b22" stroke="#228b22" points="465.0881,-81.6077 471.7886,-89.8146 471.6685,-79.2205 465.0881,-81.6077"/>
</g>
<!-- _Z&#45;&gt;ZZ -->
<g id="edge12" class="edge">
<title>_Z&#45;&gt;ZZ</title>
<path fill="none" stroke="#ff0000" d="M324.003,-34.4925C332.0277,-34.4925 340.9665,-34.4925 349.5309,-34.4925"/>
<polygon fill="#ff0000" stroke="#ff0000" points="349.7051,-37.9926 359.705,-34.4925 349.705,-30.9926 349.7051,-37.9926"/>
</g>
<!-- __ -->
<g id="node7" class="node">
<title>__</title>
<ellipse fill="none" stroke="#000000" cx="27" cy="-70.4925" rx="27" ry="18"/>
<text text-anchor="middle" x="27" y="-66.7925" font-family="Times,serif" font-size="14.00" fill="#000000">__</text>
</g>
<!-- __&#45;&gt;_H -->
<g id="edge13" class="edge">
<title>__&#45;&gt;_H</title>
<path fill="none" stroke="#228b22" d="M51.5929,-78.6901C61.2953,-81.9243 72.6035,-85.6937 83.0619,-89.1798"/>
<polygon fill="#228b22" stroke="#228b22" points="82.1548,-92.5667 92.7484,-92.4087 84.3684,-85.9259 82.1548,-92.5667"/>
</g>
<!-- __&#45;&gt;_Z -->
<g id="edge14" class="edge">
<title>__&#45;&gt;_Z</title>
<path fill="none" stroke="#ff0000" d="M53.8757,-66.9091C102.4958,-60.4264 205.1137,-46.744 260.2014,-39.399"/>
<polygon fill="#ff0000" stroke="#ff0000" points="260.7833,-42.8525 270.233,-38.0614 259.8581,-35.9139 260.7833,-42.8525"/>
</g>
</g>
</svg>
